<svg width="33.6" height="51.1" viewBox="0 0 33.6 51.1" xmlns="http://www.w3.org/2000/svg"><g id="svgGroup" stroke-linecap="round" fill-rule="evenodd" font-size="9pt" stroke="#000" stroke-width="0.25mm" fill="#000" style="stroke:#000;stroke-width:0.25mm;fill:#000"><path d="M 0 47 L 1.3 35.4 L 4.9 35.4 L 6 43.3 A 9.957 9.957 0 0 0 7.104 43.976 Q 8.294 44.609 10 45.2 Q 12.437 46.044 15.664 46.097 A 26.571 26.571 0 0 0 16.1 46.1 Q 22.6 46.1 24.75 43.5 A 9.213 9.213 0 0 0 26.7 39.208 A 12.788 12.788 0 0 0 26.9 36.9 A 9.979 9.979 0 0 0 26.722 34.956 Q 26.492 33.798 25.964 32.902 A 5.325 5.325 0 0 0 25.25 31.95 A 9.747 9.747 0 0 0 22.78 30.076 A 12.959 12.959 0 0 0 20.9 29.25 Q 18.2 28.3 15.2 27.5 Q 12.5 26.8 9.9 25.9 A 21.23 21.23 0 0 1 6.299 24.279 A 18.8 18.8 0 0 1 5.2 23.6 A 10.268 10.268 0 0 1 2.137 20.384 A 12.218 12.218 0 0 1 1.8 19.8 A 9.981 9.981 0 0 1 0.87 17.276 Q 0.604 16.124 0.529 14.781 A 19.462 19.462 0 0 1 0.5 13.7 Q 0.5 9.1 2.9 6.05 A 13.802 13.802 0 0 1 7.773 2.173 A 17.198 17.198 0 0 1 9.35 1.5 A 24.282 24.282 0 0 1 15.847 0.094 A 29.033 29.033 0 0 1 18.2 0 A 36.701 36.701 0 0 1 22.435 0.236 A 31.614 31.614 0 0 1 24.25 0.5 Q 27.1 1 29.2 1.65 Q 30.864 2.165 31.775 2.649 A 4.985 4.985 0 0 1 32.2 2.9 L 30.7 14.9 L 27.2 14.9 L 25.9 6.7 A 2.05 2.05 0 0 0 25.671 6.609 Q 25.003 6.378 22.85 5.85 A 23.079 23.079 0 0 0 17.662 5.203 A 25.673 25.673 0 0 0 17.3 5.2 Q 12.749 5.2 10.384 6.308 A 5.629 5.629 0 0 0 9.25 7 Q 7.415 8.468 7.077 11.531 A 13.383 13.383 0 0 0 7 13 A 6.219 6.219 0 0 0 7.228 14.726 A 4.718 4.718 0 0 0 8.5 16.85 Q 10 18.3 12.5 19.2 A 118.67 118.67 0 0 0 15.781 20.325 A 144.778 144.778 0 0 0 17.9 21 A 105.197 105.197 0 0 1 23.313 22.769 A 114.195 114.195 0 0 1 23.4 22.8 Q 26.2 23.8 28.5 25.4 Q 30.8 27 32.2 29.45 A 9.858 9.858 0 0 1 33.205 32.044 Q 33.6 33.681 33.6 35.7 A 21.371 21.371 0 0 1 33.312 39.32 Q 32.974 41.283 32.24 42.864 A 10.714 10.714 0 0 1 31.05 44.85 Q 28.5 48.2 24.35 49.65 A 26.258 26.258 0 0 1 17.177 51.049 A 30.627 30.627 0 0 1 15.4 51.1 Q 11.8 51.1 8.65 50.35 A 45.565 45.565 0 0 1 6.056 49.656 Q 4.884 49.302 3.864 48.913 A 25.813 25.813 0 0 1 3.2 48.65 Q 0.9 47.7 0 47 Z" vector-effect="non-scaling-stroke"/></g></svg>
